<?xml version="1.0" encoding="UTF-8"?>
<!DOCTYPE svg PUBLIC "-//W3C//DTD SVG 1.1//EN" "http://www.w3.org/Graphics/SVG/1.1/DTD/svg11.dtd">
<!-- Creator: CorelDRAW -->
<svg xmlns="http://www.w3.org/2000/svg" xml:space="preserve" width="210mm" height="210mm" version="1.1" style="shape-rendering:geometricPrecision; text-rendering:geometricPrecision; image-rendering:optimizeQuality; fill-rule:evenodd; clip-rule:evenodd"
viewBox="0 0 20985.75 20985.75"
 xmlns:xlink="http://www.w3.org/1999/xlink"
 xmlns:xodm="http://www.corel.com/coreldraw/odm/2003">
 <defs>
  <style type="text/css">
   <![CDATA[
    .fil0 {fill:#4F7EAA}
    .fil1 {fill:white;fill-rule:nonzero}
    .fil2 {fill:#5DF900;fill-rule:nonzero}
   ]]>
  </style>
 </defs>
 <g id="Layer_x0020_1">
  <metadata id="CorelCorpID_0Corel-Layer"/>
  <rect class="fil0" x="-0" width="20985.75" height="20985.75"/>
  <path class="fil1" d="M14050.91 7089.27c-14.05,-30.5 -30.05,-67.2 -45.05,-104.96 -272.18,-684.89 -767.5,-1221.65 -1372.73,-1596.38 -671.87,-416 -1476.49,-632.97 -2264.73,-633.51 -106.5,-0.06 -206.14,15.29 -311.82,31.58l-1.56 0c-63.49,9.77 -129.01,19.9 -242.91,31 -111.44,10.87 -284.96,56.93 -467.56,115.79 -234.89,75.7 -473.38,170.21 -619.45,240.87l-18.13 8.77 -24.03 8.39c-87.97,30.74 -173.39,96.01 -261.55,163.39 -77.48,59.22 -156.51,119.61 -264.89,183.39 -80.98,47.65 -270.4,216.96 -457.09,402.89 -166.66,165.97 -317.81,332.36 -367.63,417.86 -146.57,251.55 -251.78,434.96 -348.37,628.64 -95.08,190.65 -176.63,380.74 -274.54,642.53l-134.1 358.57 -362.44 -118.1c-171.67,-55.93 -450.87,-53.22 -743.56,-15.26 -346.05,44.87 -691.17,138.28 -901.16,244.42 -62.11,31.4 -115.44,55.54 -169.17,79.85 -75.04,33.96 -151.04,68.36 -195.67,94.5 -96.3,56.4 -263.65,189.44 -429.45,335.39 -161.96,142.57 -310.18,287.23 -374.17,372.1 -342.23,453.83 -563.5,1007.71 -636.47,1577.43 -69.93,545.92 -4.23,1104.15 221.27,1599.35 89.01,195.47 254.21,475.26 439.94,725.92 140.31,189.36 284.76,353.68 401.1,432.73 221.65,150.61 461.33,296.81 710.47,413.26 235.9,110.27 480.62,193.54 725.95,226.54 547.57,73.64 1130.33,68.46 1702.77,63.38 163.39,-1.45 326,-2.89 489.24,-2.56l8070.6 15.55 0 -1.56c151.74,0 4.66,1.18 158.93,2.31 287.11,2.08 496.2,3.6 789.51,-84.33 291.27,-87.32 512.92,-171.84 700.65,-285.75 185.16,-112.34 354.31,-263.06 546.33,-485.87 71.6,-83.09 134.88,-173.6 190.68,-268.88 60.02,-102.47 114.07,-217.6 162.58,-340.2 73.93,-186.81 113.78,-301.29 132.53,-403.63 20.09,-109.59 24.19,-233.84 25.52,-434.37 1.99,-297.96 -33.17,-552.57 -113.18,-788.53 -79.8,-235.35 -206.64,-458.29 -388.16,-693.37 -278.92,-361.24 -678.12,-621.53 -1117.87,-758.4 -441.69,-137.47 -921.02,-148.42 -1357.09,-10.11 -24.21,7.67 -50.22,18.64 -79.11,30.8 -162.98,68.65 -364.69,153.57 -550.94,103.51l-216.19 -58.11 -63.3 -215.14c-59.23,-201.3 -28.5,-288.13 9.47,-395.36 7.54,-21.39 2.47,-106.03 1.78,-135.62 -0.74,-31.31 -1.44,-61.04 -1.31,-94.36 -33.29,-718.37 -60.01,-873.78 -99.47,-963.98 -29.06,-196.06 -74.9,-321.95 -75.29,-358.28 -37.59,-73.3 -50.29,-115.74 -62.98,-158.23 -3.75,-12.54 -7.53,-25.17 -8.34,-26.79 -20.85,-41.56 -44.61,-90.26 -57.87,-119.04zm138.33 321.54l-0.5 -0.94 0.5 0.94zm166.41 1537.04l-0.73 -2.1c0.22,2.36 -0.29,9.37 0.73,2.1zm-8322.42 -1910.8c16.95,1.07 33.76,2.31 50.43,3.71l19.92 -48.18c-21.97,15.33 -45.37,30.17 -70.34,44.47zm3724.09 -3726.37c74.17,-10.58 159.39,-22.76 258.5,-37.19 119.3,-17.37 308.85,-25.23 498.58,-24.69 195.64,0.56 393.98,10.08 517.08,27.32 152.96,21.42 306.31,58.74 460.09,96.15 103.35,25.14 206.96,50.37 303.38,68.15 223.41,41.21 492.25,124.04 749.2,224.77 263.03,103.1 521.65,227.43 714.56,347.64 386.72,241 785.91,559.85 1138.25,919.74 326.95,333.94 615.89,706.35 820.91,1089.26 114.4,213.65 230.06,442.71 326.61,673.1 102.4,244.37 187.76,498.03 236.83,751.81 11.14,57.65 20.58,145.5 31.44,246.72 50.54,471.22 -86.95,218.69 107.94,196.6 133.73,-15.16 261.58,-29.65 364.48,-21.63 220.87,17.24 501.37,84.47 774.4,173.35 291.2,94.81 584.73,218.22 790.75,332.75 202.03,112.31 399.85,257.18 582.28,418.7 192.8,170.71 369.02,360.33 514.95,549.58 165.45,214.56 295.91,430.17 404.94,653.28l-1.27 0.62c107.26,219.53 194.65,446.81 275.01,688.04 79.53,238.74 120.15,594.99 123.83,945.8 3.75,358.02 -30.8,726.09 -101.53,969.48 -223.93,770.5 -624.61,1440.66 -1173.13,1944.32 -532.34,488.81 -1200.21,820.13 -1977.63,934.71 -530.39,78.18 -1011.9,75.35 -1525.22,72.34 -95.82,-0.57 -192.82,-1.15 -289.9,-1.15l-7330.33 1.87c-148.52,0.09 -298.28,1.65 -446.16,3.18 -1026.77,10.62 -1968.82,20.38 -2993.9,-437.62 -1099.5,-491.27 -1883.48,-1359.54 -2308.6,-2369.1 -243.7,-578.77 -369.21,-1203.99 -368.25,-1830.89 0.96,-629.5 128.77,-1260.94 391.68,-1849.36 445.8,-997.73 1276.27,-1870.38 2530.42,-2398.49 537.67,-226.4 927.71,-260.91 1216.4,-286.44 126.65,-11.2 224.49,-19.87 254.35,-35.38 36.8,-19.12 74.86,-101.33 113.7,-185.26 31.06,-67.12 62.39,-134.8 104.51,-205.94 178.97,-302.2 372.09,-590.91 593.05,-858.49 224.85,-272.27 479.76,-523.56 779.43,-746.32 180.2,-133.95 398.55,-272.53 623.93,-395.98 216.34,-118.49 439.94,-223.38 643.61,-297.37 171.63,-62.36 244.56,-89.52 305.23,-112.09 202.7,-75.46 308.2,-114.73 426.72,-144.56 132.24,-33.28 264.06,-52.1 538.85,-91.33z"/>
  <rect class="fil0" x="8184.77" y="13096.01" width="7488.03" height="3427.68"/>
  <g id="_47390317536">
   <path class="fil2" d="M15077.17 13850.6l0 3487.44c0,280.74 -113.94,535.06 -298.03,719.12 -184.08,184.08 -438.42,298.03 -719.14,298.03l-4214 0c-280.72,0 -535.06,-113.94 -719.14,-298.03 -184.08,-184.06 -298.03,-438.38 -298.03,-719.12l0 -3487.44c0,-280.75 113.95,-535.07 298.02,-719.16 184.1,-184.09 438.43,-298.04 719.15,-298.04l4214 0c280.72,0 535.05,113.94 719.15,298.04 184.06,184.09 298.02,438.41 298.02,719.16zm-1162.48 3342.11l0 -3196.83 -3923.37 0 0 3196.83 3923.37 0z"/>
   <path class="fil2" d="M10790.55 13196.68c0,321 -260.24,581.24 -581.25,581.24 -321,0 -581.25,-260.23 -581.25,-581.24l0 -1453.1c0,-818.44 243.03,-1464.38 654.18,-1922.98 453.37,-505.69 1088.98,-765.25 1816.09,-765.25 727.09,0 1362.71,259.55 1816.09,765.25 411.16,458.6 654.19,1104.53 654.19,1922.98 0,321 -260.24,581.25 -581.25,581.25 -321,0 -581.24,-260.24 -581.24,-581.25 0,-518.26 -131.7,-902.53 -354.48,-1151.02 -222.01,-247.62 -556.09,-374.74 -953.31,-374.74 -397.23,0 -731.31,127.11 -953.31,374.73 -222.78,248.49 -354.46,632.75 -354.46,1151.03l0 1453.1z"/>
   <path class="fil2" d="M12534.25 15921.25c0,321.01 -260.24,581.25 -581.25,581.25 -321,0 -581.25,-260.23 -581.25,-581.25l0 -544.91c0,-321 260.24,-581.24 581.25,-581.24 321,0 581.25,260.23 581.25,581.24l0 544.91z"/>
  </g>
 </g>
</svg>
